<?xml version="1.0" encoding="UTF-8"?>
<svg version="1.1" xmlns="http://www.w3.org/2000/svg" width="657" height="613">
<path d="M0 0 C216.81 0 433.62 0 657 0 C657 202.29 657 404.58 657 613 C440.19 613 223.38 613 0 613 C0 410.71 0 208.42 0 0 Z " fill="#FD012E" transform="translate(0,0)"/>
<path d="M0 0 C25.74 0 51.48 0 78 0 C78.886875 7.033125 79.77375 14.06625 80.6875 21.3125 C82.55268452 36.01768603 84.47868751 50.70814139 86.625 65.375 C88.33844321 77.08630605 89.86026622 88.8060905 91.24230957 100.5609436 C92.4636934 110.92016181 93.86141128 121.24214623 95.375 131.5625 C97.44565076 145.68556573 99.25878285 159.83274849 101 174 C102.7032646 187.8543267 104.46803754 201.68987711 106.5 215.5 C108.53196417 229.31013449 110.29629261 243.14572071 112 257 C113.75034553 271.227725 115.56169418 285.43901676 117.625 299.625 C117.72729919 300.32856628 117.82959839 301.03213257 117.93499756 301.75701904 C118.33597925 304.51266101 118.73710974 307.26828123 119.13870239 310.02383423 C121.71202936 327.74187184 124.01431067 345.499835 126.04931641 363.28759766 C126.21633057 364.7269165 126.21633057 364.7269165 126.38671875 366.1953125 C126.48170654 367.03078613 126.57669434 367.86625977 126.67456055 368.72705078 C126.95456702 370.98157084 126.95456702 370.98157084 127.53442383 373.06591797 C128.24897502 376.03428426 128.05840772 378.96279852 128 382 C128.66 382 129.32 382 130 382 C129.97292969 381.07703125 129.94585937 380.1540625 129.91796875 379.203125 C129.92187982 374.00400898 130.64572718 368.89841499 131.3125 363.75 C131.43044922 362.79609375 131.54839844 361.8421875 131.66992188 360.859375 C132.47459683 354.52101226 133.43497758 348.21678475 134.453125 341.91015625 C135.88105982 333.02602234 137.05155309 324.12362437 138.13375854 315.1914978 C138.6647352 310.814208 139.20811668 306.43845066 139.75 302.0625 C139.85747055 301.19280075 139.9649411 300.3231015 140.07566833 299.42704773 C142.02397262 283.69041401 144.14963672 267.97758806 146.37109375 252.27734375 C146.87288892 248.72663196 147.3741754 245.17584881 147.875 241.625 C148.00187195 240.72607025 148.1287439 239.8271405 148.25946045 238.90097046 C150.48450056 223.09433191 152.4931008 207.26559458 154.44082642 191.42266846 C156.10605773 177.89554689 157.8905122 164.39632883 159.86889648 150.91159058 C161.71814504 138.28684177 163.32552076 125.63896688 164.88015747 112.97485352 C166.28535481 101.53966075 167.80360385 90.1317266 169.48071289 78.73266602 C171.19608117 66.93103524 172.64183141 55.09658012 174.07421875 43.2578125 C175.84297329 28.79913448 177.93825072 14.43224493 180 0 C203.43 0 226.86 0 251 0 C250.32148267 10.17775993 249.3987956 19.82490849 247.6875 29.8125 C247.46140912 31.16830529 247.23624847 32.52426599 247.01196289 33.88037109 C246.55894282 36.61901434 246.10356117 39.35724595 245.64648438 42.09521484 C244.70755979 47.7663477 243.8129924 53.44376298 242.9375 59.125 C242.69616333 60.68963989 242.69616333 60.68963989 242.44995117 62.28588867 C241.02762574 71.61797555 239.76459326 80.97021899 238.49975586 90.32470703 C237.32865754 98.88224913 235.96602951 107.39155722 234.5 115.90283203 C233.16624176 123.74777918 232.05943563 131.6137226 231 139.5 C229.66689941 149.40777543 228.17784767 159.26937028 226.5 169.12426758 C223.4904911 186.80954081 220.90357076 204.5461981 218.5 222.32299805 C217.32879989 230.88110822 215.96612745 239.39098858 214.5 247.90283203 C213.16624176 255.74777918 212.05943563 263.6137226 211 271.5 C209.79961759 280.42139682 208.50978444 289.3130033 207 298.1875 C203.70307925 317.56832924 200.84401433 336.9977185 198.17852783 356.47393799 C196.62648357 367.78734496 194.89253356 379.05240097 192.96484375 390.30859375 C190.33225789 405.70053481 188.09339728 421.15166322 186 436.625 C184.37515047 448.63367857 182.46575954 460.57510659 180.41845703 472.51806641 C179.68956889 476.84121507 179.03636754 481.17482494 178.39453125 485.51171875 C177.9969238 488.01940135 177.49794052 490.51029741 177 493 C143.01 493 109.02 493 74 493 C70.66171004 477.42131351 70.66171004 477.42131351 70 470.625 C69.41182553 465.01944159 68.60336265 459.52706121 67.5 454 C66.24816582 447.71044857 65.39854257 441.43823242 64.69702148 435.06542969 C64.15119161 430.14562284 63.42133758 425.29565675 62.56640625 420.421875 C61.80002376 415.79186765 61.15302447 411.14716106 60.5 406.5 C59.72392728 400.98916288 58.94566386 395.48485038 58 390 C56.90637384 383.65696825 56.02523231 377.28509803 55.140625 370.91015625 C53.954987 362.44315442 52.52144673 354.0225534 51.0703125 345.59765625 C48.97960789 333.40700362 47.15772672 321.19911158 45.50268555 308.94189453 C43.96280007 297.58005722 42.22288942 286.25408962 40.45263672 274.92626953 C39.78020016 270.57900707 39.14135597 266.22693318 38.5 261.875 C37.4114227 254.50304628 36.18943275 247.15832331 34.9375 239.8125 C33.64223439 232.20469633 32.53755875 224.62128614 31.71850586 216.94848633 C31.12347546 211.56839258 30.16113348 206.31997764 29.10522461 201.01757812 C27.92419646 194.947556 27.23504958 188.87008322 26.625 182.71875 C26.15192833 178.64735365 25.37647622 174.6456435 24.59375 170.625 C22.70321938 160.85044421 21.45999641 151.00782329 20.19775391 141.13623047 C19.05891888 132.27679087 17.78646282 123.49355684 16.0778656 114.72494507 C14.82035786 108.22196295 13.92103313 101.6904973 13.0625 95.125 C11.77607492 85.5475871 10.42289381 75.9861552 8.9375 66.4375 C8.68625366 64.82198242 8.68625366 64.82198242 8.42993164 63.17382812 C8.10453383 61.08539198 7.77878145 58.99701104 7.45263672 56.90869141 C6.26516888 49.27789755 5.12683955 41.63994589 4 34 C3.74404053 32.27523437 3.74404053 32.27523437 3.48291016 30.515625 C2.92126054 26.71944463 2.36618868 22.922349 1.8125 19.125 C1.63332031 17.91730957 1.45414063 16.70961914 1.26953125 15.46533203 C1.10453125 14.32435059 0.93953125 13.18336914 0.76953125 12.0078125 C0.62104736 10.99348145 0.47256348 9.97915039 0.31958008 8.93408203 C0 6 0 6 0 0 Z " fill="#0A0A12" transform="translate(196,52)"/>
</svg>
